<svg xmlns="http://www.w3.org/2000/svg" width="29" height="40" viewBox="0 0 29 40">
  <g fill="none" fill-rule="evenodd" transform="translate(0 .944)">
    <path fill="#3C9BFF" fill-rule="nonzero" d="M14.5590537,0.000297546387 L14.4980662,0 C6.50394447,0 0,6.5055542 0,14.5021134 C0,18.8861618 2.24047232,22.3055649 4.73679455,25.7103882 L14.4790262,39 L24.2632054,25.7106857 C26.7592302,22.3058625 29,18.8864593 29,14.5024109 C29,6.52578735 22.5269955,0.0327301406 14.5590537,0.000297546387 Z M14.4998513,24.281868 C9.10825921,24.281868 4.72191959,19.8948441 4.72191959,14.5021134 C4.72191959,9.10968018 9.10825921,4.72265625 14.4998513,4.72265625 C19.8917408,4.72265625 24.2780804,9.10968018 24.2780804,14.5021134 C24.2780804,19.8948441 19.8917408,24.281868 14.4998513,24.281868 Z"/>
    <g transform="translate(5 6.056)">
      <path fill="#254662" fill-rule="nonzero" d="M18.0155327,6.90712514 L17.8781746,6.40376499 C18.3383242,6.2672654 18.9919197,5.98310586 18.8820333,5.48089037 C18.7152004,4.71769451 18.2367364,4.78923518 17.4512199,4.78923518 L17.4512199,4.84131679 L16.4834177,1.30005369 C16.3718143,0.965243364 16.0896579,0.704549168 15.6037537,0.704549168 C15.6037537,0.704549168 14.0753588,0.592659562 11.5499732,0.548304348 L7.63812946,0.548304348 L7.63812946,0.548590511 C5.11274386,0.592945725 3.58434902,0.704835331 3.58434902,0.704835331 C3.09873096,0.704835331 2.81113747,0.881683864 2.70468496,1.30033986 L1.74260604,4.8212854 L1.74260604,4.78952135 C0.957089503,4.78952135 0.478625511,4.71798068 0.311792672,5.48117653 C0.20247853,5.98167505 0.850636988,6.26583458 1.31050041,6.40262034 L1.17257,6.90769746 C0.478911674,7.06852088 0.293478261,7.74014468 0.293478261,8.54569261 L0.293478261,8.88393689 L0.293478261,11.2296123 L0.293478261,13.9106704 L1.65876038,13.9106704 L1.65876038,16.0863652 C1.65876038,16.3175847 1.88339808,16.5053074 2.16126204,16.5053074 L3.50222033,16.5053074 C3.78008429,16.5053074 4.00529431,16.3175847 4.00529431,16.0863652 L4.00529431,13.9106704 L15.1825222,13.9106704 L15.1825222,16.0863652 C15.1825222,16.3175847 15.4077322,16.5053074 15.6855962,16.5053074 L17.0265545,16.5053074 C17.3038461,16.5053074 17.5290561,16.3175847 17.5290561,16.0863652 L17.5290561,13.9106704 L18.8943383,13.9106704 L18.8943383,11.2296123 L18.8943383,8.88393689 L18.8943383,8.54569261 C18.8940521,7.74014468 18.709191,7.06823472 18.0155327,6.90712514 Z M3.51881776,1.89698903 C3.59264773,1.68379784 3.87308716,1.49149652 4.3097714,1.49149652 C4.3097714,1.49149652 8.28342629,1.40078295 9.58804193,1.40078295 C10.8926576,1.40078295 14.8763281,1.49149652 14.8763281,1.49149652 C15.3132986,1.49149652 15.577999,1.67320982 15.6678541,1.89698903 L16.5223359,5.81627302 C16.5223359,6.0403384 16.5003013,6.22147937 16.0633309,6.22147937 L3.12334095,6.22147937 C2.68694287,6.22147937 2.66433602,6.0403384 2.66433602,5.81627302 L3.51881776,1.89698903 Z M3.22607335,10.9749276 C2.43912599,10.9749276 1.80184172,10.337071 1.80184172,9.55040976 C1.80184172,8.76374857 2.43941216,8.12589197 3.22607335,8.12589197 C4.01273454,8.12589197 4.6508773,8.76374857 4.6508773,9.55040976 C4.6508773,10.337071 4.01273454,10.9749276 3.22607335,10.9749276 Z M15.961457,10.9749276 C15.1747958,10.9749276 14.5366531,10.337071 14.5366531,9.55040976 C14.5366531,8.76374857 15.1745097,8.12589197 15.961457,8.12589197 C16.7484044,8.12589197 17.386261,8.76374857 17.386261,9.55040976 C17.386261,10.337071 16.7484044,10.9749276 15.961457,10.9749276 Z"/>
      <circle cx="4" cy="10" r="2" fill="#FAFF66" stroke="#FFD15C"/>
      <circle cx="15" cy="10" r="2" fill="#FAFF66" stroke="#FFD15C"/>
    </g>
  </g>
</svg>
