<svg xmlns="http://www.w3.org/2000/svg" xmlns:xlink="http://www.w3.org/1999/xlink" width="20" height="18" viewBox="0 0 20 18">
  <defs>
    <path id="map-a" d="M17,12.9499909 C18.1411202,12.7183558 19,11.709479 19,10.5 C19,9.11928813 17.8807119,8 16.5,8 C15.1192881,8 14,9.11928813 14,10.5 C14,11.709479 14.8588798,12.7183558 16,12.9499909 L16,17.5 C16,17.7761424 16.2238576,18 16.5,18 C16.7761424,18 17,17.7761424 17,17.5 L17,12.9499909 Z M5.3939193,5.59739399 L10.5737015,7.81730064 C10.8440685,7.93317222 11.1517381,7.92413093 11.4148344,7.7925828 L16.5851656,5.2074172 C16.8482619,5.07586907 17.1559315,5.06682778 17.4262985,5.18269936 L23.3939193,7.74025113 C23.7616031,7.89782992 24,8.25936805 24,8.65939616 L24,21.483461 C24,22.0357457 23.5522847,22.483461 23,22.483461 C22.8645732,22.483461 22.7305575,22.4559532 22.6060807,22.402606 L17.4262985,20.1826994 C17.1559315,20.0668278 16.8482619,20.0758691 16.5851656,20.2074172 L11.4148344,22.7925828 C11.1517381,22.9241309 10.8440685,22.9331722 10.5737015,22.8173006 L4.6060807,20.2597489 C4.23839685,20.1021701 4,19.740632 4,19.3406038 L4,6.51653902 C4,5.96425427 4.44771525,5.51653902 5,5.51653902 C5.13542678,5.51653902 5.26944245,5.54404676 5.3939193,5.59739399 Z"/>
  </defs>
  <g fill="none" fill-rule="evenodd" transform="translate(-4 -5)">
    <mask id="map-b" fill="#fff">
      <use xlink:href="#map-a"/>
    </mask>
    <use fill="#D8D8D8" xlink:href="#map-a"/>
    <g fill="#999" mask="url(#map-b)">
      <rect width="28" height="28"/>
    </g>
  </g>
</svg>
