<svg xmlns="http://www.w3.org/2000/svg" xmlns:xlink="http://www.w3.org/1999/xlink" width="24" height="18" viewBox="0 0 24 18">
  <defs>
    <path id="photos-a" d="M8.5638852,9 L23.4361148,9 C24.3276335,9 24.6509198,9.09282561 24.9768457,9.2671327 C25.3027716,9.4414398 25.5585602,9.69722837 25.7328673,10.0231543 C25.9071744,10.3490802 26,10.6723665 26,11.5638852 L26,20.4361148 C26,21.3276335 25.9071744,21.6509198 25.7328673,21.9768457 C25.5585602,22.3027716 25.3027716,22.5585602 24.9768457,22.7328673 C24.6509198,22.9071744 24.3276335,23 23.4361148,23 L8.5638852,23 C7.67236646,23 7.34908022,22.9071744 7.0231543,22.7328673 C6.69722837,22.5585602 6.4414398,22.3027716 6.2671327,21.9768457 C6.09282561,21.6509198 6,21.3276335 6,20.4361148 L6,11.5638852 C6,10.6723665 6.09282561,10.3490802 6.2671327,10.0231543 C6.4414398,9.69722837 6.69722837,9.4414398 7.0231543,9.2671327 C7.34908022,9.09282561 7.67236646,9 8.5638852,9 Z M22,8 L8.5638852,8 C7.60010387,8 7.08663621,8.09915518 6.55155544,8.38531951 C6.05136104,8.6528264 5.6528264,9.05136104 5.38531951,9.55155544 C5.09915518,10.0866362 5,10.6001039 5,11.5638852 L5,19 L4.5638852,19 C3.67236646,19 3.34908022,18.9071744 3.0231543,18.7328673 C2.69722837,18.5585602 2.4414398,18.3027716 2.2671327,17.9768457 C2.09282561,17.6509198 2,17.3276335 2,16.4361148 L2,8.2048565 C2,7.09045808 2.11603201,6.68635028 2.33391588,6.27894287 C2.55179975,5.87153546 2.87153546,5.55179975 3.27894287,5.33391588 C3.68635028,5.11603201 4.09045808,5 5.2048565,5 L19.4361148,5 C20.3276335,5 20.6509198,5.09282561 20.9768457,5.2671327 C21.3027716,5.4414398 21.5585602,5.69722837 21.7328673,6.0231543 C21.9071744,6.34908022 22,6.67236646 22,7.5638852 L22,8 Z"/>
  </defs>
  <g fill="none" fill-rule="evenodd" transform="translate(-2 -5)">
    <mask id="photos-b" fill="#fff">
      <use xlink:href="#photos-a"/>
    </mask>
    <use fill="#000" xlink:href="#photos-a"/>
    <g fill="#CCC" mask="url(#photos-b)">
      <rect width="28" height="28"/>
    </g>
  </g>
</svg>
