<svg xmlns="http://www.w3.org/2000/svg" width="29" height="40" viewBox="0 0 29 40">
  <g fill="none" transform="translate(0 .944)">
    <path fill="#FFA733" d="M14.5590537,0.000297546387 L14.4980662,0 C6.50394447,0 0,6.5055542 0,14.5021134 C0,18.8861618 2.24047232,22.3055649 4.73679455,25.7103882 L14.4790262,39 L24.2632054,25.7106857 C26.7592302,22.3058625 29,18.8864593 29,14.5024109 C29,6.52578735 22.5269955,0.0327301406 14.5590537,0.000297546387 Z M14.4998513,24.281868 C9.10825921,24.281868 4.72191959,19.8948441 4.72191959,14.5021134 C4.72191959,9.10968018 9.10825921,4.72265625 14.4998513,4.72265625 C19.8917408,4.72265625 24.2780804,9.10968018 24.2780804,14.5021134 C24.2780804,19.8948441 19.8917408,24.281868 14.4998513,24.281868 Z"/>
    <g transform="translate(8 4.056)">
      <path fill="#FFA733" d="M20.0200049,3.05693473 L18.082438,0.993161406 C17.8128218,0.705983235 17.3786931,0.705983235 17.1136341,0.993161406 L7.31158148,11.43373 L7.31158148,7.71501976 C7.31158148,7.31103743 7.00542515,6.98489539 6.6261066,6.98489539 L3.42729227,6.98489539 C1.53542103,6.98493912 0,8.62037223 0,10.6354735 L0,16.4763373 C0,17.688328 0.918510059,18.6666667 2.05638357,18.6666667 L7.31158148,18.6666667 L7.31158148,14.5293681 L10.2179523,14.5293681 L20.0200459,4.08879953 C20.2896212,3.80651917 20.2896212,3.3441129 20.0200049,3.05693473 Z"/>
      <path fill="#7F8189" d="M18.8999979,16.3333333 L7,16.3333333 L7,11.6666667 L20.2999853,11.6666667 C20.6865531,11.6666667 21,11.9651465 21,12.3333447 L21,14.333339 C21,15.4379339 20.059827,16.3333333 18.8999979,16.3333333 Z" opacity=".1"/>
      <path fill="#757880" d="M20.3978378,11.6666667 L14.7777778,11.6666667 L14.7777778,16.3333333 L19.1935496,16.3333333 C20.1912143,16.3333333 21,15.4379339 21,14.333339 L21,12.3333447 C21,11.9651465 20.7304048,11.6666667 20.3978378,11.6666667 Z"/>
      <path fill="#5D5F66" d="M4.14705522.0229811321L4.14705522 5.16820126C4.14705522 5.57490566 3.86921623 5.90324528 3.52498204 5.90324528L0 5.90324528 0 3.69811321C0 1.66943396 1.39340519.0229811321 3.11029142.0229811321L4.14705522.0229811321zM4.35443779 13.9885094C3.32538656 13.9885094 2.48825549 12.9993522 2.48825549 11.7834214 2.48825549 10.5674906 3.32538656 9.57833333 4.35443779 9.57833333 5.38348902 9.57833333 6.22062009 10.5674906 6.22062009 11.7834214 6.22062009 12.9993522 5.38348902 13.9885094 4.35443779 13.9885094z" transform="translate(0 5.444)"/>
      <path fill="#55575C" d="M6.22222222,17.1111111 C6.22222222,15.8244632 5.52443193,14.7777778 4.66666667,14.7777778 L4.66666667,19.4444444 C5.52443193,19.4444444 6.22222222,18.397759 6.22222222,17.1111111 Z"/>
      <path fill="#E7ECFD" d="M5.44444444,16.3333333 C5.0155859,16.3333333 4.66666667,16.6822526 4.66666667,17.1111111 C4.66666667,17.5399697 5.0155859,17.8888889 5.44444444,17.8888889 C5.87330299,17.8888889 6.22222222,17.5399697 6.22222222,17.1111111 C6.22217564,16.682206 5.87330299,16.3333333 5.44444444,16.3333333 Z"/>
      <path fill="#CAD1D7" d="M5.44444444,17.1111344 C5.44444444,16.682263 5.09552521,16.3333333 4.66666667,16.3333333 L4.66666667,17.8888889 C5.09557179,17.8889355 5.44444444,17.5400058 5.44444444,17.1111344 Z"/>
      <path fill="#5D5F66" d="M11.6666667,19.4444444 C10.3800188,19.4444444 9.33333333,18.397759 9.33333333,17.1111111 C9.33333333,15.8244632 10.3800188,14.7777778 11.6666667,14.7777778 C12.9533146,14.7777778 14,15.8244632 14,17.1111111 C14,18.397759 12.9533146,19.4444444 11.6666667,19.4444444 Z"/>
      <path fill="#55575C" d="M12.4444444,17.1111111 C12.4444444,15.8244632 11.7466542,14.7777778 10.8888889,14.7777778 L10.8888889,19.4444444 C11.7466542,19.4444444 12.4444444,18.397759 12.4444444,17.1111111 Z"/>
      <path fill="#E7ECFD" d="M11.6666667,16.3333333 C11.2378081,16.3333333 10.8888889,16.6822526 10.8888889,17.1111111 C10.8888889,17.5399697 11.2378081,17.8888889 11.6666667,17.8888889 C12.0955252,17.8888889 12.4444444,17.5399697 12.4444444,17.1111111 C12.4444444,16.682206 12.0955252,16.3333333 11.6666667,16.3333333 Z"/>
      <path fill="#CAD1D7" d="M11.6666667,17.1111344 C11.6666667,16.682263 11.3177474,16.3333333 10.8888889,16.3333333 L10.8888889,17.8888889 C11.3177474,17.8889355 11.6666667,17.5400058 11.6666667,17.1111344 Z"/>
      <path fill="#5D5F66" d="M17.1111111,19.4444444 C15.8244632,19.4444444 14.7777778,18.397759 14.7777778,17.1111111 C14.7777778,15.8244632 15.8244632,14.7777778 17.1111111,14.7777778 C18.397759,14.7777778 19.4444444,15.8244632 19.4444444,17.1111111 C19.4444444,18.397759 18.397759,19.4444444 17.1111111,19.4444444 Z"/>
      <path fill="#55575C" d="M17.8888889,17.1111111 C17.8888889,15.8244632 17.1910986,14.7777778 16.3333333,14.7777778 L16.3333333,19.4444444 C17.1910986,19.4444444 17.8888889,18.397759 17.8888889,17.1111111 Z"/>
      <path fill="#E7ECFD" d="M17.1111111,16.3333333 C16.6822526,16.3333333 16.3333333,16.6822526 16.3333333,17.1111111 C16.3333333,17.5399697 16.6822526,17.8888889 17.1111111,17.8888889 C17.5399697,17.8888889 17.8888889,17.5399697 17.8888889,17.1111111 C17.8888889,16.682206 17.5399697,16.3333333 17.1111111,16.3333333 Z"/>
      <path fill="#CAD1D7" d="M17.1111111,17.1111344 C17.1111111,16.682263 16.7621919,16.3333333 16.3333333,16.3333333 L16.3333333,17.8888889 C16.7621919,17.8889355 17.1111111,17.5400058 17.1111111,17.1111344 Z"/>
      <path fill="#E7ECFD" d="M2.33332169,15.5555556 L0,15.5555556 L0,14 L2.33332169,14 C2.76283885,14 3.11111111,14.3482309 3.11111111,14.7778011 C3.11111111,15.2072781 2.76283885,15.5555556 2.33332169,15.5555556 Z"/>
      <path fill="#CC7400" d="M18.881476,0.983123723 C18.6145328,0.709329129 18.1847083,0.709329129 17.9222771,0.983123723 L14.7777778,4.20832981 L14.7777778,10.1111111 L20.7997926,3.93453522 C21.0667358,3.66536849 21.0667358,3.22451208 20.7997926,2.95071749 L18.881476,0.983123723 Z"/>
      <path fill="#DBDFE3" d="M18.6666667,1.55555556 C18.2378081,1.55555556 17.8888889,1.90447479 17.8888889,2.33333333 C17.8888889,2.76219188 18.2378081,3.11111111 18.6666667,3.11111111 C19.0955252,3.11111111 19.4444444,2.76219188 19.4444444,2.33333333 C19.4444444,1.90447479 19.0955252,1.55555556 18.6666667,1.55555556 Z"/>
      <path fill="#CAD1D7" d="M20.2222222,2.33335663 C20.2222222,1.90448524 19.873303,1.55555556 19.4444444,1.55555556 L19.4444444,3.11111111 C19.8733496,3.11111111 20.2222222,2.76222801 20.2222222,2.33335663 Z"/>
      <path fill="#7F8189" d="M21,8.80059181 C21,9.95145459 19.9526158,10.8888889 18.6666667,10.8888889 C17.3807176,10.8888889 16.3333333,9.95149629 16.3333333,8.80059181 C16.3333333,8.41542822 16.6807222,8.10447888 17.1111266,8.10447888 C17.5415311,8.10447888 17.8889199,8.41538653 17.8889199,8.80059181 C17.8889199,9.18579709 18.2362622,9.49670473 18.6666667,9.49670473 C19.0970711,9.49670473 19.44446,9.18579709 19.44446,8.80059181 C19.44446,8.54071688 19.2837396,8.30402347 19.0296617,8.18340448 C18.900014,8.12307414 18.7755838,8.0488182 18.6667133,7.96063667 C18.179288,7.59865461 17.8889199,7.02324407 17.8889199,6.39671742 L17.8889199,3.80722404 C17.8889199,3.42206045 18.2363088,3.11111111 18.6667133,3.11111111 C19.0971177,3.11111111 19.4445066,3.42201876 19.4445066,3.80722404 L19.4445066,6.39671742 C19.4445066,6.64266676 19.5689367,6.86543457 19.7504342,6.9536161 C20.5229634,7.31559815 21,8.02096701 21,8.80059181 Z"/>
      <path fill="#757880" d="M21,8.80058061 C21,9.95144957 20.3017439,10.8888889 19.4444444,10.8888889 L19.4444444,9.49669727 C19.7313497,9.49669727 19.9629733,9.18578796 19.9629733,8.80058061 C19.9629733,8.54070429 19.8558264,8.30400962 19.6864411,8.18338998 C19.6000093,8.12305931 19.5170559,8.04880298 19.4444755,7.96062097 L19.4444755,3.11111111 C19.7313807,3.11111111 19.9630044,3.42202043 19.9630044,3.80722777 L19.9630044,6.39673503 C19.9630044,6.64268569 20.0459578,6.86545469 20.1669562,6.9536367 C20.6819756,7.315579 21,8.02095164 21,8.80058061 Z"/>
      <path fill="#5D5F66" d="M18.6666667,4.66666667 C17.3800188,4.66666667 16.3333333,3.61998123 16.3333333,2.33333333 C16.3333333,1.04668543 17.3800188,0 18.6666667,0 C19.9533146,0 21,1.04668543 21,2.33333333 C21,3.61998123 19.9533146,4.66666667 18.6666667,4.66666667 Z"/>
      <path fill="#55575C" d="M21,2.33333333 C21,1.04668543 20.3022097,0 19.4444444,0 L19.4444444,4.66666667 C20.3022097,4.66666667 21,3.61998123 21,2.33333333 Z"/>
    </g>
  </g>
</svg>
